<?xml version="1.0" encoding="utf-8"?>
<!-- Generator: Adobe Illustrator 24.3.0, SVG Export Plug-In . SVG Version: 6.00 Build 0)  -->
<svg version="1.1" id="Layer_1" xmlns="http://www.w3.org/2000/svg" xmlns:xlink="http://www.w3.org/1999/xlink" x="0px" y="0px"
	 viewBox="0 0 95.3 28.7" style="enable-background:new 0 0 95.3 28.7;" xml:space="preserve">
<style type="text/css">
	.st0{fill:#111111;}
</style>
<g>
	<path class="st0" d="M32.2,14.3c0-2.1-2.7-4.2-6.8-5.4c0.9-4.2,0.5-7.5-1.3-8.6C23.7,0.1,23.2,0,22.6,0v1.5c0.3,0,0.5,0.1,0.7,0.2
		c0.9,0.5,1.3,2.5,1,5c-0.1,0.6-0.2,1.3-0.3,1.9c-1.3-0.3-2.7-0.6-4.2-0.7c-0.9-1.2-1.8-2.3-2.7-3.3c2.1-2,4.1-3.1,5.5-3.1V0
		c-1.8,0-4.2,1.3-6.6,3.5C13.7,1.3,11.3,0,9.5,0v1.5c1.4,0,3.4,1.1,5.5,3.1c-0.9,1-1.8,2.1-2.7,3.3C10.8,8,9.4,8.2,8.2,8.5
		C8,7.9,7.9,7.3,7.8,6.6c-0.3-2.5,0.1-4.5,1-5C9,1.5,9.2,1.5,9.5,1.5V0C9,0,8.5,0.2,8,0.4C6.2,1.5,5.8,4.8,6.7,8.9
		C2.7,10.2,0,12.2,0,14.3c0,2.1,2.7,4.2,6.8,5.4c-0.9,4.2-0.5,7.5,1.3,8.6c0.4,0.2,0.9,0.4,1.5,0.4c1.8,0,4.2-1.3,6.6-3.5
		c2.4,2.2,4.8,3.5,6.6,3.5c0.6,0,1.1-0.1,1.5-0.4c1.8-1.1,2.3-4.4,1.3-8.5C29.5,18.5,32.2,16.5,32.2,14.3L32.2,14.3z M23.7,10
		c-0.2,0.8-0.5,1.7-0.9,2.6c-0.3-0.5-0.6-1.1-0.9-1.6c-0.3-0.5-0.6-1-0.9-1.5C21.9,9.6,22.8,9.8,23.7,10L23.7,10z M20.6,17
		c-0.5,0.9-1,1.7-1.6,2.5c-1,0.1-2,0.1-3,0.1c-1,0-2,0-3-0.1c-0.5-0.8-1.1-1.6-1.6-2.5c-0.5-0.9-1-1.7-1.4-2.6
		c0.4-0.9,0.9-1.8,1.4-2.6c0.5-0.9,1-1.7,1.6-2.5c1-0.1,2-0.1,3-0.1c1,0,2,0,3,0.1c0.5,0.8,1.1,1.6,1.6,2.5c0.5,0.9,1,1.7,1.4,2.6
		C21.6,15.2,21.1,16.1,20.6,17L20.6,17z M22.8,16.1c0.4,0.9,0.7,1.8,0.9,2.6c-0.9,0.2-1.8,0.4-2.7,0.5c0.3-0.5,0.6-1,0.9-1.6
		C22.2,17.2,22.5,16.6,22.8,16.1L22.8,16.1z M16.1,23.1c-0.6-0.6-1.2-1.3-1.8-2.1c0.6,0,1.2,0,1.8,0c0.6,0,1.2,0,1.8,0
		C17.3,21.8,16.7,22.5,16.1,23.1z M11.2,19.2c-0.9-0.1-1.8-0.3-2.7-0.5c0.2-0.8,0.5-1.7,0.9-2.6c0.3,0.5,0.6,1.1,0.9,1.6
		C10.6,18.2,10.9,18.7,11.2,19.2z M16.1,5.6c0.6,0.6,1.2,1.3,1.8,2.1c-0.6,0-1.2,0-1.8,0c-0.6,0-1.2,0-1.8,0
		C14.9,6.9,15.5,6.2,16.1,5.6z M11.2,9.4c-0.3,0.5-0.6,1-0.9,1.6c-0.3,0.5-0.6,1.1-0.9,1.6c-0.4-0.9-0.7-1.8-0.9-2.6
		C9.4,9.8,10.3,9.6,11.2,9.4L11.2,9.4z M5.3,17.7c-2.3-1-3.8-2.3-3.8-3.3S3,12,5.3,11c0.6-0.2,1.2-0.5,1.8-0.7
		c0.4,1.3,0.9,2.6,1.5,4c-0.6,1.4-1.1,2.7-1.5,4C6.5,18.1,5.9,17.9,5.3,17.7L5.3,17.7z M8.8,27c-0.9-0.5-1.3-2.5-1-5
		c0.1-0.6,0.2-1.3,0.3-1.9c1.3,0.3,2.7,0.6,4.2,0.7c0.9,1.2,1.8,2.3,2.7,3.3c-2.1,2-4.1,3.1-5.5,3.1C9.3,27.2,9,27.2,8.8,27L8.8,27z
		 M24.4,22c0.3,2.5-0.1,4.5-1,5c-0.2,0.1-0.5,0.2-0.8,0.2c-1.4,0-3.4-1.1-5.5-3.1c0.9-1,1.8-2.1,2.7-3.3c1.5-0.2,2.9-0.4,4.2-0.7
		C24.2,20.8,24.3,21.4,24.4,22z M26.9,17.7c-0.6,0.2-1.2,0.5-1.8,0.7c-0.4-1.3-0.9-2.6-1.5-4c0.6-1.4,1.1-2.7,1.5-4
		c0.6,0.2,1.3,0.4,1.8,0.7c2.3,1,3.8,2.3,3.8,3.3C30.7,15.4,29.2,16.7,26.9,17.7L26.9,17.7z"/>
	<circle class="st0" cx="16.1" cy="14.3" r="3"/>
	<path class="st0" d="M22.6,0"/>
</g>
<g>
	<path d="M37.9,9.3c0.7-0.1,1.9-0.2,3.1-0.2c1.5,0,2.6,0.2,3.3,0.8c0.6,0.5,0.9,1.2,0.9,2.1c0,1.3-0.9,2.2-1.8,2.5v0
		c0.7,0.3,1.1,1,1.4,1.9c0.3,1.2,0.6,2.5,0.8,2.9h-2.4c-0.2-0.3-0.4-1.1-0.7-2.4c-0.3-1.3-0.7-1.6-1.7-1.6h-0.7v4h-2.3V9.3z
		 M40.2,13.7h0.9c1.2,0,1.8-0.6,1.8-1.5c0-0.9-0.6-1.4-1.7-1.4c-0.6,0-0.9,0-1,0.1V13.7z"/>
	<path d="M48.6,16.4c0.1,1,1,1.4,2.1,1.4c0.8,0,1.4-0.1,2.1-0.3l0.3,1.6c-0.8,0.3-1.7,0.5-2.7,0.5c-2.5,0-4-1.5-4-3.8
		c0-1.9,1.2-4,3.8-4c2.4,0,3.3,1.9,3.3,3.7c0,0.4,0,0.7-0.1,0.9H48.6z M51.3,14.9c0-0.6-0.2-1.5-1.3-1.5c-1,0-1.4,0.9-1.4,1.5H51.3z
		"/>
	<path d="M59.1,19.4l-0.1-0.7h0c-0.5,0.6-1.2,0.9-2.1,0.9c-1.5,0-2.4-1.1-2.4-2.3c0-1.9,1.7-2.9,4.4-2.8v-0.1c0-0.4-0.2-1-1.4-1
		c-0.8,0-1.6,0.3-2.1,0.6l-0.4-1.5c0.5-0.3,1.5-0.7,2.9-0.7c2.5,0,3.3,1.5,3.3,3.2v2.6c0,0.7,0,1.4,0.1,1.8H59.1z M58.8,15.9
		c-1.2,0-2.2,0.3-2.2,1.2c0,0.6,0.4,0.9,0.9,0.9c0.6,0,1-0.4,1.2-0.9c0-0.1,0-0.3,0-0.4V15.9z"/>
	<path d="M68.4,19.2c-0.4,0.2-1.2,0.3-2.1,0.3c-2.4,0-3.9-1.5-3.9-3.8c0-2.2,1.5-4,4.3-4c0.6,0,1.3,0.1,1.8,0.3l-0.4,1.7
		c-0.3-0.1-0.7-0.2-1.3-0.2c-1.2,0-2,0.9-2,2.1c0,1.4,0.9,2.1,2,2.1c0.5,0,1-0.1,1.3-0.2L68.4,19.2z"/>
	<path d="M72.6,9.9V12h1.7v1.7h-1.7v2.7c0,0.9,0.2,1.3,0.9,1.3c0.3,0,0.5,0,0.7-0.1l0,1.7c-0.3,0.1-0.9,0.2-1.5,0.2
		c-0.7,0-1.4-0.3-1.7-0.6c-0.4-0.4-0.6-1.2-0.6-2.2v-3h-1V12h1v-1.6L72.6,9.9z"/>
	<path d="M80.7,9.2H83v6.5c0,2.9-1.4,3.9-3.6,3.9c-0.5,0-1.2-0.1-1.7-0.2l0.3-1.9c0.3,0.1,0.7,0.2,1.2,0.2c1,0,1.6-0.4,1.6-2V9.2z"
		/>
	<path d="M84.9,17.4c0.4,0.3,1.3,0.6,2,0.6c0.7,0,1-0.2,1-0.6s-0.2-0.6-1.1-0.9c-1.5-0.5-2.1-1.4-2.1-2.2c0-1.4,1.2-2.4,3-2.4
		c0.9,0,1.6,0.2,2.1,0.4l-0.4,1.6c-0.3-0.2-1-0.4-1.6-0.4c-0.6,0-0.9,0.2-0.9,0.6c0,0.3,0.3,0.5,1.2,0.9c1.4,0.5,2,1.2,2,2.3
		c0,1.4-1.1,2.4-3.2,2.4c-1,0-1.8-0.2-2.4-0.5L84.9,17.4z"/>
</g>
</svg>
